{
	"asset":{
		"generator":"Khronos glTF Blender I/O v4.2.57",
		"version":"2.0"
	},
	"scene":0,
	"scenes":[
		{
			"name":"Scene",
			"nodes":[
				4,
				5
			]
		}
	],
	"nodes":[
		{
			"mesh":0,
			"name":"Cylinder.001",
			"rotation":[
				0,
				0,
				0.7071068286895752,
				0.7071068286895752
			],
			"scale":[
				-1,
				-2.178790330886841,
				-0.5190432667732239
			],
			"translation":[
				-2.169999599456787,
				-0.045418884605169296,
				-2.495802402496338
			]
		},
		{
			"mesh":1,
			"name":"Cylinder.002",
			"rotation":[
				0,
				0,
				0.7071068286895752,
				0.7071068286895752
			],
			"scale":[
				-1,
				-2.178790330886841,
				-0.5190432667732239
			],
			"translation":[
				-2.169999599456787,
				-0.045418884605169296,
				2.4672374725341797
			]
		},
		{
			"mesh":2,
			"name":"Torus",
			"rotation":[
				0,
				0,
				-0.7071068286895752,
				0.7071068286895752
			],
			"translation":[
				-0.003619605675339699,
				-0.08249388635158539,
				-1.5142823457717896
			]
		},
		{
			"mesh":3,
			"name":"Torus.001",
			"rotation":[
				0,
				0,
				-0.7071068286895752,
				0.7071068286895752
			],
			"translation":[
				-0.003619605675339699,
				-0.08249388635158539,
				1.4857176542282104
			]
		},
		{
			"children":[
				0,
				1,
				2,
				3
			],
			"mesh":4,
			"name":"Cylinder.003",
			"translation":[
				0.003619605675339699,
				0.08249388635158539,
				0.014282360672950745
			]
		},
		{
			"name":"Area",
			"rotation":[
				-0.7071068286895752,
				0,
				0,
				0.7071068286895752
			],
			"translation":[
				0.0058020055294036865,
				0.7153806090354919,
				0.04962664842605591
			]
		}
	],
	"materials":[
		{
			"doubleSided":true,
			"name":"Material.001",
			"pbrMetallicRoughness":{
				"baseColorFactor":[
					0.06463412940502167,
					0.1362573355436325,
					0.13522972166538239,
					1
				],
				"metallicFactor":0.717391312122345,
				"roughnessFactor":0.32608693838119507
			}
		}
	],
	"meshes":[
		{
			"name":"Cylinder.005",
			"primitives":[
				{
					"attributes":{
						"POSITION":0,
						"NORMAL":1,
						"TEXCOORD_0":2
					},
					"indices":3,
					"material":0
				}
			]
		},
		{
			"name":"Cylinder.007",
			"primitives":[
				{
					"attributes":{
						"POSITION":4,
						"NORMAL":5,
						"TEXCOORD_0":6
					},
					"indices":3,
					"material":0
				}
			]
		},
		{
			"name":"Torus",
			"primitives":[
				{
					"attributes":{
						"POSITION":7,
						"NORMAL":8,
						"TEXCOORD_0":9
					},
					"indices":10,
					"material":0
				}
			]
		},
		{
			"name":"Torus.001",
			"primitives":[
				{
					"attributes":{
						"POSITION":11,
						"NORMAL":12,
						"TEXCOORD_0":13
					},
					"indices":10,
					"material":0
				}
			]
		},
		{
			"name":"Cylinder.006",
			"primitives":[
				{
					"attributes":{
						"POSITION":14,
						"NORMAL":15,
						"TEXCOORD_0":16
					},
					"indices":17,
					"material":0
				}
			]
		}
	],
	"accessors":[
		{
			"bufferView":0,
			"componentType":5126,
			"count":5605,
			"max":[
				0.28674235939979553,
				1,
				0.05000000074505806
			],
			"min":[
				-0.059151630848646164,
				-1.0702075958251953,
				-0.05000000074505806
			],
			"type":"VEC3"
		},
		{
			"bufferView":1,
			"componentType":5126,
			"count":5605,
			"type":"VEC3"
		},
		{
			"bufferView":2,
			"componentType":5126,
			"count":5605,
			"type":"VEC2"
		},
		{
			"bufferView":3,
			"componentType":5123,
			"count":31860,
			"type":"SCALAR"
		},
		{
			"bufferView":4,
			"componentType":5126,
			"count":5605,
			"max":[
				0.28674235939979553,
				1,
				0.05000000074505806
			],
			"min":[
				-0.059151630848646164,
				-1.0702075958251953,
				-0.05000000074505806
			],
			"type":"VEC3"
		},
		{
			"bufferView":5,
			"componentType":5126,
			"count":5605,
			"type":"VEC3"
		},
		{
			"bufferView":6,
			"componentType":5126,
			"count":5605,
			"type":"VEC2"
		},
		{
			"bufferView":7,
			"componentType":5126,
			"count":4225,
			"max":[
				1.0499999523162842,
				0.05000000074505806,
				1.0499999523162842
			],
			"min":[
				-1.0499999523162842,
				-0.05000000074505806,
				-1.0499999523162842
			],
			"type":"VEC3"
		},
		{
			"bufferView":8,
			"componentType":5126,
			"count":4225,
			"type":"VEC3"
		},
		{
			"bufferView":9,
			"componentType":5126,
			"count":4225,
			"type":"VEC2"
		},
		{
			"bufferView":10,
			"componentType":5123,
			"count":24576,
			"type":"SCALAR"
		},
		{
			"bufferView":11,
			"componentType":5126,
			"count":4225,
			"max":[
				1.0499999523162842,
				0.05000000074505806,
				1.0499999523162842
			],
			"min":[
				-1.0499999523162842,
				-0.05000000074505806,
				-1.0499999523162842
			],
			"type":"VEC3"
		},
		{
			"bufferView":12,
			"componentType":5126,
			"count":4225,
			"type":"VEC3"
		},
		{
			"bufferView":13,
			"componentType":5126,
			"count":4225,
			"type":"VEC2"
		},
		{
			"bufferView":14,
			"componentType":5126,
			"count":1558,
			"max":[
				0.13130001723766327,
				0.041226547211408615,
				0.4828786253929138
			],
			"min":[
				-0.04999999701976776,
				-0.1572098582983017,
				-0.4822533428668976
			],
			"type":"VEC3"
		},
		{
			"bufferView":15,
			"componentType":5126,
			"count":1558,
			"type":"VEC3"
		},
		{
			"bufferView":16,
			"componentType":5126,
			"count":1558,
			"type":"VEC2"
		},
		{
			"bufferView":17,
			"componentType":5123,
			"count":8436,
			"type":"SCALAR"
		}
	],
	"bufferViews":[
		{
			"buffer":0,
			"byteLength":67260,
			"byteOffset":0,
			"target":34962
		},
		{
			"buffer":0,
			"byteLength":67260,
			"byteOffset":67260,
			"target":34962
		},
		{
			"buffer":0,
			"byteLength":44840,
			"byteOffset":134520,
			"target":34962
		},
		{
			"buffer":0,
			"byteLength":63720,
			"byteOffset":179360,
			"target":34963
		},
		{
			"buffer":0,
			"byteLength":67260,
			"byteOffset":243080,
			"target":34962
		},
		{
			"buffer":0,
			"byteLength":67260,
			"byteOffset":310340,
			"target":34962
		},
		{
			"buffer":0,
			"byteLength":44840,
			"byteOffset":377600,
			"target":34962
		},
		{
			"buffer":0,
			"byteLength":50700,
			"byteOffset":422440,
			"target":34962
		},
		{
			"buffer":0,
			"byteLength":50700,
			"byteOffset":473140,
			"target":34962
		},
		{
			"buffer":0,
			"byteLength":33800,
			"byteOffset":523840,
			"target":34962
		},
		{
			"buffer":0,
			"byteLength":49152,
			"byteOffset":557640,
			"target":34963
		},
		{
			"buffer":0,
			"byteLength":50700,
			"byteOffset":606792,
			"target":34962
		},
		{
			"buffer":0,
			"byteLength":50700,
			"byteOffset":657492,
			"target":34962
		},
		{
			"buffer":0,
			"byteLength":33800,
			"byteOffset":708192,
			"target":34962
		},
		{
			"buffer":0,
			"byteLength":18696,
			"byteOffset":741992,
			"target":34962
		},
		{
			"buffer":0,
			"byteLength":18696,
			"byteOffset":760688,
			"target":34962
		},
		{
			"buffer":0,
			"byteLength":12464,
			"byteOffset":779384,
			"target":34962
		},
		{
			"buffer":0,
			"byteLength":16872,
			"byteOffset":791848,
			"target":34963
		}
	],
	"buffers":[
		{
			"byteLength":808720,
			"uri":"scene.bin"
		}
	]
}
